<svg width="195" height="125" viewBox="0 0 195 125" fill="none" xmlns="http://www.w3.org/2000/svg">
<path d="M194.162 117.057V120.821C194.162 123.122 185.677 125 175.305 125H24.9496C14.578 125 6.09302 123.122 6.09302 120.821V117.057H194.162Z" fill="#2D0363"/>
<path d="M178.121 10.7056H45.2231V29.2823C45.2231 29.2823 45.2231 38.7511 37.1985 43.3547L21.5103 52.8416L17.6018 50.4767V110.892C17.6018 112.089 18.0773 113.237 18.9237 114.083C19.7701 114.929 20.9181 115.405 22.1151 115.405H178.121C179.318 115.405 180.466 114.929 181.313 114.083C182.159 113.237 182.635 112.089 182.635 110.892V15.2098C182.632 14.0144 182.156 12.8687 181.31 12.0243C180.464 11.1798 179.317 10.7056 178.121 10.7056Z" fill="#7119E1"/>
<path d="M174.989 18.7753H25.2473V107.687H174.989V18.7753Z" fill="white"/>
<path d="M96.4671 62.2291H88.948V98.9583H96.4671V62.2291Z" fill="#25D0B4"/>
<path d="M106.261 69.5046H99.2471V98.9674H106.261V69.5046Z" fill="#A8E6D5"/>
<path d="M116.569 77.0239H109.041V98.9585H116.569V77.0239Z" fill="#25D0B4"/>
<path d="M86.2852 84.4257H79.0188V98.9585H86.2852V84.4257Z" fill="#A8E6D5"/>
<path d="M56.2537 71.9509H48.7346V98.9584H56.2537V71.9509Z" fill="#25D0B4"/>
<path d="M66.0564 44.474H59.0427V98.9675H66.0564V44.474Z" fill="#A8E6D5"/>
<path d="M76.3648 77.0239H68.8367V98.9585H76.3648V77.0239Z" fill="#25D0B4"/>
<path d="M46.0809 84.4257H38.8145V98.9585H46.0809V84.4257Z" fill="#A8E6D5"/>
<path d="M160.502 44.5191C160.502 40.672 158.973 36.9824 156.253 34.2621C153.533 31.5417 149.843 30.0134 145.996 30.0134V59.0158C149.841 59.0158 153.53 57.4888 156.25 54.7704C158.97 52.052 160.499 48.3647 160.502 44.5191Z" fill="#A8E6D5"/>
<path d="M145.996 30.0134C142.149 30.0134 138.459 31.5417 135.739 34.2621C133.019 36.9824 131.49 40.672 131.49 44.5191C131.486 46.6378 131.952 48.7309 132.853 50.6482L145.996 44.5191V30.0134Z" fill="#DEF8F4"/>
<path d="M145.996 59.0158V44.5192L132.853 50.6482C134.02 53.1494 135.877 55.2655 138.205 56.7477C140.533 58.23 143.236 59.0169 145.996 59.0158V59.0158Z" fill="#25D0B4"/>
<path d="M158.299 75.6787C157.549 74.5254 156.637 73.4858 155.591 72.5917L146.321 83.5319L158.299 75.6787Z" fill="#E5E5E5"/>
<path d="M158.299 75.6789L146.321 83.5321L157.758 92.1795C159.544 89.8221 160.557 86.9695 160.657 84.0135C160.757 81.0575 159.94 78.1429 158.317 75.6699L158.299 75.6789Z" fill="#A8E6D5"/>
<path d="M155.564 72.5917C153.227 70.6143 150.318 69.437 147.264 69.2322C144.21 69.0274 141.17 69.8058 138.59 71.4535C136.01 73.1012 134.025 75.5317 132.926 78.3889C131.827 81.2462 131.672 84.3802 132.483 87.3321L146.321 83.5319L155.564 72.5917Z" fill="#25D0B4"/>
<path d="M146.321 97.8752C148.537 97.878 150.724 97.3658 152.709 96.3789C154.694 95.392 156.422 93.9575 157.758 92.1885L146.321 83.532L132.501 87.3232C133.33 90.3534 135.132 93.0273 137.628 94.9338C140.125 96.8403 143.179 97.8738 146.321 97.8752V97.8752Z" fill="#DEF8F4"/>
<path d="M21.5104 50.2871L35.7272 41.6848C43.0117 37.5054 43.0116 28.9031 43.0116 28.9031V6.20124C39.7801 2.59061 29.6162 0.153452 22.5755 0H20.4723C13.4315 0.144425 3.24054 2.61769 0 6.20124V28.9031C0 28.9031 6.88673e-06 37.5054 7.28446 41.6848L21.5013 50.2871" fill="#7119E1"/>
<path d="M21.8322 27.9923C21.7509 28.1819 21.6968 28.2992 21.6516 28.4166C20.4481 31.5578 19.2656 34.6901 18.1042 37.8133C17.9685 38.2069 17.7088 38.5458 17.364 38.7791C17.1192 38.9469 16.839 39.0559 16.5452 39.0979C16.2514 39.1398 15.9518 39.1135 15.6698 39.021C15.3878 38.9284 15.131 38.7722 14.9192 38.5643C14.7073 38.3564 14.5463 38.1025 14.4484 37.8223C14.3125 37.3687 14.3316 36.8827 14.5026 36.4412C15.2428 34.1846 16.0371 31.9279 16.696 29.6713C17.5606 26.556 17.9889 23.336 17.9688 20.1031C17.9688 19.4171 17.8063 19.2004 17.1383 19.0741L9.52894 17.3681C9.24189 17.3252 8.9694 17.2137 8.73459 17.0431C8.49972 16.8733 8.30803 16.6507 8.17495 16.3932C8.07822 16.1985 8.01998 15.9871 8.00344 15.7703C7.98968 15.5535 8.01725 15.336 8.08468 15.1295C8.15504 14.9233 8.26549 14.7331 8.40965 14.5698C8.55512 14.403 8.7333 14.2678 8.93318 14.1726C9.19442 14.0473 9.48351 13.9914 9.77265 14.0102C10.6302 14.0553 11.4787 14.2449 12.3362 14.3622C14.981 14.7413 17.6168 15.2649 20.3067 15.4002C22.7592 15.5001 25.2155 15.3458 27.6363 14.9399L33.5487 14.0373C33.7747 13.9876 34.0087 13.9876 34.2347 14.0373C34.4666 14.0753 34.6879 14.1614 34.8846 14.29C35.0769 14.4197 35.2424 14.5851 35.372 14.7774C35.5059 14.9666 35.5981 15.1819 35.6428 15.4093C35.6759 15.637 35.6636 15.8691 35.6065 16.092C35.5494 16.3149 35.4487 16.5244 35.3102 16.7082C35.1717 16.892 34.9982 17.0465 34.7997 17.1629C34.6011 17.2793 34.3815 17.3551 34.1534 17.3861L26.544 19.0921C25.849 19.2546 25.7046 19.4351 25.7046 20.1392C25.7481 24.9117 26.6343 29.6391 28.3223 34.1033C28.6111 34.9157 28.9 35.7281 29.1798 36.5405C29.2783 36.7727 29.3286 37.0225 29.3276 37.2748C29.3265 37.527 29.2742 37.7764 29.1737 38.0077C29.0732 38.2391 28.9267 38.4476 28.7431 38.6206C28.5595 38.7935 28.3426 38.9273 28.1057 39.0138C27.7409 39.1577 27.3407 39.186 26.9593 39.095C26.5771 39.003 26.2313 38.7987 25.9663 38.5083C25.7933 38.3158 25.6586 38.0922 25.5692 37.8494C24.3656 34.7141 23.1831 31.5819 22.0217 28.4527L21.8322 27.9923Z" fill="white"/>
<path d="M21.2485 14.8669C21.724 14.8668 22.1936 14.7612 22.6234 14.5576C23.0532 14.3541 23.4325 14.0577 23.7338 13.6899C24.0352 13.322 24.2512 12.8919 24.3662 12.4304C24.4811 11.969 24.4923 11.4878 24.3988 11.0215C24.2768 10.3975 23.971 9.8242 23.5206 9.3754C23.0702 8.9266 22.4958 8.62282 21.8713 8.50313C21.1962 8.369 20.4958 8.4552 19.8733 8.74907C19.2509 9.04293 18.7392 9.5289 18.4137 10.1354C18.0882 10.7419 17.9661 11.437 18.0653 12.1181C18.1645 12.7993 18.4798 13.4306 18.9648 13.9191C19.5719 14.5228 20.3923 14.8632 21.2485 14.8669Z" fill="white"/>
</svg>
