<svg width="125" height="126" viewBox="0 0 125 126" fill="none" xmlns="http://www.w3.org/2000/svg">
<path d="M76.2398 14.0237C70.2884 7.93072 62.7357 3.7393 54.5004 1.95919C46.265 0.179082 37.7018 0.887001 29.8521 3.99682C22.0025 7.10663 15.2047 12.4843 10.2855 19.476C5.36623 26.4676 2.53753 34.7718 2.14336 43.3787C1.7492 51.9857 3.80657 60.5244 8.06526 67.9565C12.324 75.3886 18.6004 81.3938 26.1314 85.2418C33.6624 89.0897 42.1234 90.6146 50.4854 89.6311C58.8473 88.6475 66.7499 85.1978 73.232 79.7015L84.9599 91.7763L84.1679 92.587C84.0136 92.7482 83.9271 92.9649 83.9271 93.1907C83.9271 93.4164 84.0136 93.6332 84.1679 93.7944L112.114 122.36C112.429 122.676 112.853 122.853 113.294 122.853C113.735 122.853 114.158 122.676 114.473 122.36L120.624 116.055C120.932 115.733 121.105 115.299 121.105 114.848C121.105 114.396 120.932 113.963 120.624 113.64L92.6942 85.0661C92.5367 84.9081 92.325 84.8196 92.1044 84.8196C91.8839 84.8196 91.6722 84.9081 91.5147 85.0661L90.7227 85.8769L78.9949 73.8022C85.8859 65.2745 89.4224 54.4224 88.9129 43.3674C88.4034 32.3124 83.8846 21.8493 76.2398 14.0237Z" fill="#7119E1" stroke="#7119E1" stroke-width="2" stroke-miterlimit="10"/>
<path d="M45.3359 81.668C64.9952 81.668 80.9323 65.3534 80.9323 45.2283C80.9323 25.1032 64.9952 8.78857 45.3359 8.78857C25.6765 8.78857 9.7395 25.1032 9.7395 45.2283C9.7395 65.3534 25.6765 81.668 45.3359 81.668Z" fill="#F5F5F5"/>
<path d="M32.0747 90.2323C49.789 90.2323 64.1493 75.5318 64.1493 57.3977C64.1493 39.2636 49.789 24.5631 32.0747 24.5631C14.3603 24.5631 0 39.2636 0 57.3977C0 75.5318 14.3603 90.2323 32.0747 90.2323Z" fill="#25D0B4"/>
<path d="M32.1001 63.7543C31.999 64.013 31.9231 64.1683 31.8642 64.3322C30.3252 68.4951 28.789 72.6579 27.2556 76.8208C27.0851 77.3425 26.7502 77.7915 26.3036 78.0973C25.8545 78.4059 25.3185 78.5545 24.7786 78.5199C24.2759 78.5206 23.7861 78.3575 23.38 78.0542C22.9887 77.7422 22.6957 77.3193 22.5375 76.8381C22.357 76.2326 22.3807 75.5824 22.6049 74.9924C23.5654 71.991 24.5932 68.955 25.4526 65.9881C26.5853 61.8446 27.1523 57.5606 27.1376 53.2579C27.1376 52.3954 26.9355 52.0936 26.0677 51.8952L16.1765 49.6269C15.8056 49.5673 15.4536 49.4196 15.1486 49.1956C14.8399 48.9728 14.5884 48.6769 14.4156 48.3332C14.2847 48.0644 14.2101 47.7706 14.1966 47.4707C14.173 47.1785 14.2103 46.8845 14.3061 46.6082C14.3997 46.336 14.5426 46.0844 14.7273 45.8665C14.9155 45.6469 15.1447 45.468 15.4014 45.3404C15.7425 45.1741 16.1196 45.0998 16.4966 45.1247C17.6088 45.1851 18.7125 45.4352 19.8246 45.5991C23.2621 46.0993 26.6827 46.8152 30.1791 46.9791C33.3647 47.1032 36.5543 46.8981 39.6996 46.3667L47.3834 45.1334C47.9815 45.0077 48.604 45.1252 49.1189 45.4611C49.3703 45.6335 49.5875 45.853 49.7593 46.108C49.9285 46.3705 50.0484 46.663 50.1131 46.9704C50.1897 47.5763 50.0289 48.1886 49.6658 48.6735C49.3027 49.1583 48.7668 49.4763 48.1753 49.5579C44.8839 50.3226 41.5868 51.0816 38.2842 51.8348C37.3827 52.0504 37.1973 52.2919 37.1889 53.232C37.2514 59.5789 38.4065 65.8649 40.6011 71.8012C40.9718 72.8793 41.3425 73.9574 41.7048 75.0355C41.8335 75.3443 41.8994 75.6767 41.8987 76.0124C41.8979 76.3481 41.8305 76.6801 41.7005 76.9883C41.5704 77.2965 41.3805 77.5743 41.1423 77.805C40.904 78.0357 40.6224 78.2144 40.3146 78.3302C39.839 78.5182 39.3189 78.5546 38.8227 78.4345C38.3265 78.3144 37.8774 78.0436 37.5343 77.6575C37.3067 77.4093 37.1317 77.1157 37.0204 76.795C35.4702 72.6378 33.9312 68.4749 32.4034 64.3063C32.277 64.1596 32.2012 64.013 32.1001 63.7543Z" fill="white"/>
<path d="M31.7715 45.6336C32.3872 45.628 32.9942 45.4843 33.5498 45.2126C34.1054 44.9409 34.596 44.5478 34.9872 44.0611C35.3783 43.5743 35.6605 43.0057 35.8138 42.3952C35.9671 41.7847 35.9879 41.1473 35.8746 40.5278C35.7477 39.9087 35.4894 39.3258 35.1179 38.8203C34.7464 38.3148 34.2709 37.8993 33.725 37.603C33.179 37.3067 32.5762 37.1369 31.959 37.1058C31.3419 37.0747 30.7256 37.1829 30.1538 37.4228C29.3882 37.7429 28.7336 38.29 28.2742 38.994C27.8148 39.6979 27.5715 40.5264 27.5757 41.373C27.5826 42.5055 28.0245 43.5898 28.8058 44.3917C29.596 45.1894 30.6617 45.6357 31.7715 45.6336V45.6336Z" fill="white"/>
<path d="M45.5297 81.9008C65.1891 81.9008 81.1261 65.5861 81.1261 45.461C81.1261 25.3359 65.1891 9.02124 45.5297 9.02124C25.8704 9.02124 9.93335 25.3359 9.93335 45.461C9.93335 65.5861 25.8704 81.9008 45.5297 81.9008Z" stroke="white" stroke-width="2" stroke-linejoin="round"/>
<g style="mix-blend-mode:soft-light">
<path d="M20.2795 70.7317C26.182 77.1508 34.1739 81.1387 42.7495 81.9439L81.0251 42.1146C81.0296 42.0399 81.0296 41.965 81.0251 41.8904C80.1261 33.1604 76.173 25.0579 69.8954 19.0778L20.2795 70.7317Z" fill="white"/>
</g>
<g style="mix-blend-mode:soft-light">
<path d="M46.0269 9.401L10.6411 46.2375C10.6411 47.3472 10.7085 48.4684 10.8433 49.6012C11.3591 54.5808 12.8704 59.3985 15.2834 63.7544L63.0879 14.0066C57.8787 11.0043 52.0049 9.41866 46.0269 9.401Z" fill="white"/>
</g>
<rect x="79.8669" y="91.8965" width="16.0883" height="47.7357" rx="2" transform="rotate(-44.4041 79.8669 91.8965)" fill="#2D0363"/>
</svg>
