<svg width="153" height="125" viewBox="0 0 153 125" fill="none" xmlns="http://www.w3.org/2000/svg">
<path d="M98.5964 105.879C118.256 105.879 134.193 89.5648 134.193 69.4397C134.193 49.3146 118.256 33 98.5964 33C78.937 33 63 49.3146 63 69.4397C63 89.5648 78.937 105.879 98.5964 105.879Z" fill="#F5F5F5"/>
<path d="M31.5 52C42.2696 52 51 43.2696 51 32.5C51 21.7304 42.2696 13 31.5 13C20.7304 13 12 21.7304 12 32.5C12 43.2696 20.7304 52 31.5 52Z" fill="#F5F5F5"/>
<path d="M149.868 87.1829C151.279 82.9319 152.175 78.5198 152.536 74.0454L143.681 69.6818C143.681 68.2086 143.635 66.7259 143.507 65.2433C143.507 64.7271 143.406 64.2204 143.351 63.7043L151.683 58.3179C150.831 53.9111 149.461 49.626 147.604 45.5558L137.759 46.2878C136.798 44.5494 135.729 42.8757 134.56 41.2767L139.143 32.362C136.244 28.9895 132.964 25.9812 129.372 23.4004L121.204 29.0307C119.526 28.0154 117.787 27.1096 115.997 26.3188L115.603 16.2498C111.449 14.8081 107.14 13.885 102.77 13.5004L98.4796 22.584C97.0404 22.584 95.6013 22.6309 94.1438 22.7529C93.6396 22.7998 93.1446 22.8655 92.6496 22.9218L87.3878 14.3825C83.0831 15.2596 78.8973 16.6648 74.9211 18.5677L75.6361 28.6366C73.9365 29.6215 72.3014 30.7186 70.7411 31.921L62.0235 27.229C58.7247 30.1933 55.7884 33.5553 53.2785 37.2416L58.7785 45.5933C57.7831 47.3091 56.8981 49.0896 56.1293 50.9234L46.2842 51.3175C44.8781 55.5698 43.9823 59.9813 43.6167 64.455L52.481 68.8467C52.481 70.3199 52.481 71.7932 52.646 73.2853C52.646 73.8014 52.7468 74.2987 52.8201 74.8148L44.4693 80.2012C45.3289 84.6072 46.7014 88.8918 48.5576 92.9633L58.3935 92.2314C59.3546 93.9697 60.4232 95.6435 61.5927 97.2424L57.0093 106.157C59.9073 109.532 63.1911 112.537 66.7902 115.109L74.9486 109.479C76.6288 110.496 78.371 111.402 80.1645 112.191L80.5495 122.26C84.7026 123.704 89.0122 124.624 93.3829 125L97.6913 115.926C99.1213 115.926 100.57 115.926 102.027 115.757C102.522 115.757 103.017 115.644 103.512 115.579L108.783 124.109C113.091 123.237 117.28 121.835 121.259 119.933L120.544 109.854C122.237 108.863 123.872 107.769 125.439 106.579L134.147 111.271C137.439 108.3 140.375 104.939 142.892 101.259L137.392 92.907C138.379 91.183 139.263 89.4 140.042 87.5676L149.868 87.1829ZM98.0946 102.141C91.7381 102.15 85.5217 100.229 80.232 96.6205C74.9423 93.0121 70.8171 87.8786 68.3783 81.8694C65.9395 75.8603 65.2966 69.2456 66.5312 62.8623C67.7657 56.4791 70.8221 50.6142 75.3136 46.0097C79.8052 41.4051 85.53 38.2679 91.7637 36.995C97.9975 35.7221 104.46 36.3707 110.334 38.8587C116.207 41.3468 121.228 45.5624 124.76 50.9723C128.293 56.3821 130.178 62.743 130.178 69.2502C130.169 77.9621 126.787 86.3152 120.773 92.4799C114.76 98.6446 106.605 102.118 98.0946 102.141V102.141Z" fill="#00aeef"/>
<path fill-rule="evenodd" clip-rule="evenodd" d="M41.6504 62.2363C42.0955 58.2816 42.9487 54.3844 44.1968 50.6103L44.4226 49.9274L54.3308 49.5308C54.9683 48.0679 55.6786 46.6394 56.459 45.2508L50.9272 36.8508L51.3186 36.276C53.2481 33.442 55.4253 30.7959 57.8223 28.3699C57.7275 27.6839 57.6043 27.0023 57.453 26.3268C57.4139 26.128 57.3661 25.9381 57.3184 25.7482L57.3184 25.7481C57.2945 25.6533 57.2707 25.5584 57.2479 25.4625L61.6237 21.7271C60.8008 19.2813 59.689 16.9462 58.3125 14.773L52.7157 15.9652C52.0373 15.046 51.2963 14.1763 50.4985 13.3624L52.452 7.90834C50.5323 6.21215 48.4206 4.75476 46.1617 3.567L41.9031 7.44145C40.859 6.99744 39.7891 6.6192 38.6993 6.30892L37.7226 0.596615C35.2246 0.0966158 32.6758 -0.0902165 30.1332 0.0402895L28.3555 5.55389C27.535 5.66317 26.7048 5.8122 25.8745 6.00095C25.6679 6.04443 25.4613 6.09848 25.2584 6.15154L25.2584 6.15154C25.1832 6.17122 25.1085 6.19075 25.0345 6.20956L21.3619 1.75896C18.9583 2.5986 16.6627 3.7293 14.5247 5.12672L15.6967 10.7794C14.793 11.4695 13.9379 12.223 13.1376 13.0345L7.76548 11.0476C6.10083 13.0004 4.67119 15.1482 3.50685 17.4454L7.32599 21.7768C6.88354 22.8341 6.50832 23.9192 6.2027 25.0254L0.576582 26.0188C0.0927668 28.5605 -0.0875977 31.1522 0.0393795 33.7379L5.47013 35.5459C5.57063 36.3907 5.71409 37.2297 5.89991 38.0594C5.95283 38.3285 6.02166 38.5814 6.09205 38.8401L6.11476 38.9236L1.72915 42.659C2.55203 45.1048 3.66391 47.4399 5.04036 49.6131L10.6371 48.421C11.3181 49.3381 12.0589 50.2077 12.8544 51.0238L10.9009 56.4778C12.8181 58.1773 14.9302 59.6349 17.1912 60.8191L21.4498 56.9447C22.4895 57.3916 23.5564 57.7698 24.6438 58.0772L25.6206 63.7895C28.1152 64.2899 30.6608 64.4768 33.2002 64.3459L34.9876 58.8223C35.8213 58.7193 36.6494 58.5734 37.4686 58.3852C37.7211 58.3321 37.9658 58.2632 38.2167 58.1925L38.3086 58.1667L41.6504 62.2363ZM34.1672 50.9841C30.5196 51.4838 26.8081 50.8727 23.5019 49.2279C20.1956 47.5831 17.4429 44.9784 15.5916 41.743C13.7402 38.5076 12.8733 34.7867 13.1004 31.0504C13.3274 27.314 14.6383 23.73 16.8673 20.7511C19.0963 17.7722 22.1435 15.5322 25.6237 14.3141C29.104 13.0959 32.8612 12.9543 36.4205 13.9071C39.9798 14.86 43.1816 16.8645 45.6213 19.6674C48.0609 22.4703 49.629 25.9459 50.1273 29.6548C50.4574 32.1214 50.3064 34.6299 49.6828 37.037C49.0592 39.4441 47.9753 41.7026 46.4931 43.6834C45.0109 45.6643 43.1594 47.3286 41.0445 48.5813C38.9295 49.834 36.5925 50.6505 34.1672 50.9841Z" fill="#00aeef"/>
<path d="M98.0858 76.1757L97.8474 76.7481C96.283 80.9709 94.7338 85.1842 93.1999 89.3882C93.0237 89.9172 92.6823 90.3721 92.2283 90.6825C91.7743 90.9929 91.233 91.1416 90.6882 91.1055C90.1799 91.1035 89.6854 90.9359 89.2765 90.6269C88.8479 90.3308 88.5259 89.899 88.3598 89.3976C88.1707 88.783 88.1934 88.1205 88.424 87.5208C89.3957 84.4711 90.4407 81.4495 91.3115 78.3903C92.4472 74.1953 93.0087 69.8592 92.9799 65.5061C92.9799 64.5677 92.7782 64.3238 91.8982 64.1267L81.879 61.8276C81.5029 61.7623 81.1458 61.6115 80.834 61.3866C80.5238 61.1585 80.2696 60.8597 80.0915 60.5139C79.964 60.2501 79.8893 59.963 79.8715 59.6694C79.8532 59.377 79.8905 59.0838 79.9815 58.806C80.0721 58.5276 80.2188 58.2718 80.4123 58.0553C80.6021 57.8334 80.8326 57.6517 81.0906 57.5204C81.439 57.351 81.8242 57.2766 82.209 57.3046C83.3273 57.3609 84.4456 57.6236 85.5732 57.7738C89.0565 58.2899 92.5215 59.0125 96.0599 59.172C99.2862 59.3025 102.517 59.0982 105.703 58.5621L113.477 57.314C113.779 57.2484 114.091 57.2484 114.393 57.314C114.693 57.3688 114.98 57.4835 115.237 57.6518C115.495 57.8236 115.716 58.047 115.888 58.3087C116.059 58.5675 116.18 58.8573 116.245 59.1626C116.289 59.4691 116.273 59.7816 116.198 60.0817C116.123 60.3819 115.99 60.6637 115.807 60.9108C115.625 61.1579 115.396 61.3654 115.134 61.5212C114.873 61.677 114.583 61.778 114.283 61.8183L104.273 64.1267C103.357 64.3426 103.164 64.5865 103.164 65.5343C103.226 71.9491 104.393 78.3024 106.611 84.3022C106.996 85.3907 107.362 86.4886 107.738 87.5865C107.868 87.8992 107.934 88.2355 107.933 88.5752C107.931 88.9148 107.863 89.2506 107.731 89.5622C107.599 89.8738 107.406 90.1546 107.165 90.3876C106.923 90.6207 106.638 90.8011 106.327 90.9178C106.011 91.0427 105.674 91.1021 105.336 91.0926C104.997 91.0832 104.664 91.005 104.355 90.8627C104.047 90.7204 103.769 90.5169 103.537 90.2637C103.306 90.0106 103.126 89.713 103.008 89.3882C101.438 85.1717 99.8794 80.9521 98.3332 76.7293C98.2599 76.5886 98.1866 76.429 98.0858 76.1757Z" fill="#00aeef"/>
<path d="M97.7832 57.8209C98.4072 57.8183 99.023 57.6744 99.5862 57.3993C100.149 57.1242 100.646 56.7248 101.041 56.2299C101.435 55.7349 101.718 55.1566 101.868 54.5366C102.018 53.9165 102.033 53.2701 101.91 52.6438C101.787 52.0174 101.53 51.4267 101.158 50.914C100.786 50.4013 100.307 49.9794 99.7564 49.6786C99.2059 49.3778 98.5971 49.2055 97.9738 49.1742C97.3505 49.1428 96.7281 49.2532 96.1515 49.4973C95.3815 49.8299 94.7223 50.3841 94.254 51.0926C93.8284 51.7451 93.5841 52.5037 93.5473 53.2874C93.5106 54.0711 93.6827 54.8502 94.0452 55.5414C94.4078 56.2326 94.9472 56.8099 95.6056 57.2114C96.264 57.6129 97.0168 57.8236 97.7832 57.8209V57.8209Z" fill="#00aeef"/>
</svg>
