<svg width="15" height="15" viewBox="0 0 15 15" fill="none" xmlns="http://www.w3.org/2000/svg">
<circle cx="7.5" cy="7.5" r="7.5" fill="#8424FF"/>
<path d="M4.20711 7.29289C3.81658 6.90237 3.18342 6.90237 2.79289 7.29289C2.40237 7.68342 2.40237 8.31658 2.79289 8.70711L4.20711 7.29289ZM6 10.5L5.29289 11.2071C5.68342 11.5976 6.31658 11.5976 6.70711 11.2071L6 10.5ZM12.2071 5.70711C12.5976 5.31658 12.5976 4.68342 12.2071 4.29289C11.8166 3.90237 11.1834 3.90237 10.7929 4.29289L12.2071 5.70711ZM2.79289 8.70711L5.29289 11.2071L6.70711 9.79289L4.20711 7.29289L2.79289 8.70711ZM6.70711 11.2071L12.2071 5.70711L10.7929 4.29289L5.29289 9.79289L6.70711 11.2071Z" fill="white"/>
</svg>
